<svg xmlns="http://www.w3.org/2000/svg" viewBox="0 0 51.26 83.29"><defs><style>.cls-1{fill:#848484;}</style></defs><g id="レイヤー_2" data-name="レイヤー 2"><g id="レイヤー_10" data-name="レイヤー 10"><path class="cls-1" d="M17.79,30.28l0-.05-.31-.1,4.07-2.23-.06,0a14.75,14.75,0,1,0-13.38,0h0l4.08,2.23-.32.1C-.77,35.66,0,45.8,0,45.8V83.29h29.5V45.8h0S30.26,35.72,17.79,30.28Zm-3-.74v0h0Z"/><path class="cls-1" d="M39.55,30.28l0-.05-.32-.1,4.08-2.23-.06,0A14.75,14.75,0,1,0,29.48,1.78a21.15,21.15,0,0,1,5.1,13.38,18.41,18.41,0,0,1-7.2,15c8.28,6.84,7.2,15.63,7.2,15.63h0V83.29H51.26V45.8h0S52,35.72,39.55,30.28Zm-3-.74,0,0h0Z"/></g></g></svg>