<svg xmlns="http://www.w3.org/2000/svg" viewBox="0 0 471.5 389.7"><defs><style>.cls-1{fill:#97d1bf;}</style></defs><g id="レイヤー_2" data-name="レイヤー 2"><g id="レイヤー_7" data-name="レイヤー 7"><rect class="cls-1" x="156.19" width="79.56" height="79.29"/><path class="cls-1" d="M79.56,155.67a76.51,76.51,0,0,1,76.63-76.38V0C69.93,0,0,69.7,0,155.67S69.93,311.34,156.19,311.34V232.05A76.51,76.51,0,0,1,79.56,155.67Z"/><rect class="cls-1" x="156.19" y="232.05" width="79.56" height="79.29"/><rect class="cls-1" x="235.75" y="310.4" width="79.56" height="79.29" transform="translate(551.06 700.1) rotate(180)"/><path class="cls-1" d="M391.94,234a76.5,76.5,0,0,1-76.63,76.37v79.3C401.57,389.7,471.5,320,471.5,234S401.57,78.36,315.31,78.36v79.29A76.51,76.51,0,0,1,391.94,234Z"/><rect class="cls-1" x="235.75" y="78.36" width="79.56" height="79.29" transform="translate(551.06 236.01) rotate(180)"/></g></g></svg>