<svg xmlns="http://www.w3.org/2000/svg" viewBox="0 0 471.63 471.5"><defs><style>.cls-1{fill:#97d1bf;}</style></defs><g id="レイヤー_2" data-name="レイヤー 2"><g id="レイヤー_7" data-name="レイヤー 7"><polygon class="cls-1" points="235.88 0.14 235.75 0 0.14 235.61 0.14 338.14 198.36 139.91 198.36 42.88 273.68 42.88 273.68 140.18 471.63 338.14 471.63 235.61 236.02 0 235.88 0.14"/><rect class="cls-1" y="396.18" width="0.13" height="75.31"/><rect class="cls-1" x="0.13" y="396.18" width="198.23" height="75.31"/><rect class="cls-1" x="273.68" y="396.18" width="197.82" height="75.31"/><polygon class="cls-1" points="273.68 396.18 273.68 140.18 235.88 102.39 198.36 139.91 198.36 396.18 273.68 396.18"/><polygon class="cls-1" points="273.68 140.18 273.68 42.88 198.36 42.88 198.36 139.91 235.88 102.39 273.68 140.18"/><rect class="cls-1" x="198.36" y="396.18" width="75.31" height="75.31"/></g></g></svg>