<svg xmlns="http://www.w3.org/2000/svg" viewBox="0 0 471.5 471.5"><defs><style>.cls-1{fill:#97d1bf;}</style></defs><g id="レイヤー_2" data-name="レイヤー 2"><g id="レイヤー_7" data-name="レイヤー 7"><path class="cls-1" d="M470.85,218.29A14.87,14.87,0,0,0,456,204.53H415.24a14.82,14.82,0,0,1-14.38-11.1A168.77,168.77,0,0,0,383,149.93a14.84,14.84,0,0,1,2.36-18l29-29a14.89,14.89,0,0,0,.81-20.17A237.73,237.73,0,0,0,390.6,58a14.87,14.87,0,0,0-20.28.7L341.64,87.4a14.84,14.84,0,0,1-18.13,2.25A169.08,169.08,0,0,0,279.6,71,14.81,14.81,0,0,1,268.66,56.7V15.61A14.89,14.89,0,0,0,255,.78Q245.46,0,235.75,0,227.83,0,220,.52a14.84,14.84,0,0,0-13.82,14.84V55.83a14.9,14.9,0,0,1-11.38,14.45,169.17,169.17,0,0,0-45.92,18.81,14.81,14.81,0,0,1-18-2.33L102.08,57.93a14.88,14.88,0,0,0-20.22-.76A237.81,237.81,0,0,0,57.17,81.86a14.88,14.88,0,0,0,.76,20.22l28.84,28.84a14.8,14.8,0,0,1,2.3,18,169.41,169.41,0,0,0-18.39,44.33,14.91,14.91,0,0,1-14.42,11.26H15.48A14.88,14.88,0,0,0,.64,218.29Q0,226.93,0,235.75t.64,17.46A14.88,14.88,0,0,0,15.48,267H56.26a14.89,14.89,0,0,1,14.41,11.24,169.53,169.53,0,0,0,19,45.32,14.83,14.83,0,0,1-2.26,18.11L58.71,370.32A14.87,14.87,0,0,0,58,390.6a237.73,237.73,0,0,0,24.81,24.56,14.89,14.89,0,0,0,20.17-.81l29-29A14.81,14.81,0,0,1,149.9,383a169.44,169.44,0,0,0,44.92,18.22,14.9,14.9,0,0,1,11.4,14.45v40.47A14.85,14.85,0,0,0,220,471q7.78.51,15.71.52,9.7,0,19.22-.79a14.88,14.88,0,0,0,13.69-14.83V414.8a14.81,14.81,0,0,1,11-14.34,169.57,169.57,0,0,0,42.91-18,14.83,14.83,0,0,1,18.05,2.29l28.84,28.84a14.86,14.86,0,0,0,20.22.75,237.62,237.62,0,0,0,24.68-24.68,14.88,14.88,0,0,0-.75-20.23l-28.84-28.83a14.83,14.83,0,0,1-2.31-18,168.89,168.89,0,0,0,18.4-44.32A14.91,14.91,0,0,1,415.24,267H456a14.87,14.87,0,0,0,14.83-13.76q.64-8.64.65-17.46T470.85,218.29Zm-235.1,87.56a70.11,70.11,0,1,1,70.1-70.1A70.1,70.1,0,0,1,235.75,305.85Z"/></g></g></svg>