<svg xmlns="http://www.w3.org/2000/svg" viewBox="0 0 471.5 471.5"><defs><style>.cls-1{fill:#97d1bf;}</style></defs><g id="レイヤー_2" data-name="レイヤー 2"><g id="レイヤー_7" data-name="レイヤー 7"><path class="cls-1" d="M444.77,58.84H297.87l-.84,0H271.09V25.1A26.73,26.73,0,0,0,244.42,0H227.08a26.73,26.73,0,0,0-26.56,23.74V58.67h-23.9a26.83,26.83,0,0,1-3,.17H26.73A26.73,26.73,0,0,0,0,85.57V97.39a26.72,26.72,0,0,0,26.73,26.72h418A26.72,26.72,0,0,0,471.5,97.39V85.57A26.73,26.73,0,0,0,444.77,58.84Z"/><path class="cls-1" d="M380,159.59v33.7H380v68a28.84,28.84,0,0,1-28.84,28.84h0a28.85,28.85,0,0,1-28.85-28.84V159.59H264.58v1.21c0,.09,0,.17,0,.26V261.33a28.84,28.84,0,0,1-28.84,28.84h0a28.84,28.84,0,0,1-28.84-28.84V159.59H149.22V261.33a28.84,28.84,0,0,1-57.68,0V164.27c0-.11,0-.22,0-.33v-4.35H33.92l28,311.91h347.5l28-311.91Z"/><polygon class="cls-1" points="33.85 159.59 33.85 159.59 33.92 159.59 33.85 159.59"/></g></g></svg>