<svg xmlns="http://www.w3.org/2000/svg" viewBox="0 0 53.85 94.19"><defs><style>.cls-1{fill:#848484;}</style></defs><g id="レイヤー_2" data-name="レイヤー 2"><g id="レイヤー_10" data-name="レイヤー 10"><path class="cls-1" d="M26.92,63.47A15.32,15.32,0,0,0,42.24,48.15V15.32a15.32,15.32,0,1,0-30.63,0V48.15A15.31,15.31,0,0,0,26.92,63.47Z"/><path class="cls-1" d="M11.56,84.45a4.87,4.87,0,0,0,0,9.74H42.29a4.87,4.87,0,1,0,0-9.74H11.56Z"/><path class="cls-1" d="M53.85,52.34V27.91h0V26.54a3,3,0,0,0-5.9,0V50.25a21,21,0,1,1-42.05,0V26.54a2.95,2.95,0,0,0-5.9,0v25.8a26,26,0,0,0,24,25.9h5.89A26,26,0,0,0,53.85,52.34Z"/></g></g></svg>