<svg xmlns="http://www.w3.org/2000/svg" viewBox="0 0 1045.62 121.05"><defs><style>.cls-1{fill:#fff;}.cls-2{fill:#97d1bf;}.cls-3{fill:#231815;}.cls-4{fill:none;}</style></defs><g id="レイヤー_2" data-name="レイヤー 2"><g id="レイヤー_7" data-name="レイヤー 7"><rect class="cls-1" x="8.91" y="15.77" width="94.8" height="87.12"/><path class="cls-2" d="M0,2.8V118.5H115.27V2.8Zm97.34,98.25h-80V20.24H71.83a26.85,26.85,0,0,1,0,53.7c-.43,0-.85,0-1.27-.06h-.14Z"/><path d="M71.83,73.94a26.85,26.85,0,0,0,0-53.7H17.32L70.56,73.88C71,73.9,71.4,73.94,71.83,73.94Z"/><rect class="cls-3" x="129.99" y="2.48" width="22.31" height="116.17"/><rect class="cls-3" x="129.99" y="100.37" width="44.62" height="18.29" transform="translate(304.6 219.03) rotate(180)"/><rect class="cls-3" x="184.05" y="2.48" width="22.31" height="116.17"/><rect class="cls-3" x="290.87" y="2.58" width="22.31" height="116.17"/><rect class="cls-3" x="292.61" y="2.48" width="44.62" height="18.29" transform="translate(629.85 23.25) rotate(180)"/><rect class="cls-3" x="294.36" y="100.37" width="44.62" height="18.29" transform="translate(633.34 219.03) rotate(180)"/><rect class="cls-3" x="290.87" y="49.05" width="44.62" height="18.29" transform="translate(626.35 116.39) rotate(180)"/><polygon class="cls-4" points="249.82 69.21 259.05 2.53 240.58 2.53 249.82 69.21"/><polygon points="249.82 69.21 240.58 2.53 218.06 2.53 234.16 118.75 242.96 118.75 249.82 69.21"/><polygon points="259.05 2.53 249.82 69.21 256.68 118.75 265.48 118.75 281.57 2.53 259.05 2.53"/><polygon points="256.68 118.75 249.82 69.21 242.96 118.75 256.68 118.75"/><rect class="cls-3" x="611.9" y="2.53" width="44.62" height="18.29" transform="translate(1268.41 23.35) rotate(180)"/><rect class="cls-3" x="610.15" y="49.1" width="44.62" height="18.29" transform="translate(1264.92 116.49) rotate(180)"/><polygon points="613.64 118.71 613.64 100.42 632.46 100.42 632.46 68.25 632.46 2.63 610.15 2.63 610.15 118.81 632.46 118.81 632.46 118.71 613.64 118.71"/><rect x="613.64" y="100.42" width="18.82" height="18.29"/><path class="cls-4" d="M743.22,15.74V55.9q7.28,0,10.2-2.18t2.92-14.11V29.69q0-8.6-2.82-11.27T743.22,15.74Z"/><path class="cls-4" d="M743.22,15.74V55.9q7.28,0,10.2-2.18t2.92-14.11V29.69q0-8.6-2.82-11.27T743.22,15.74Z"/><path class="cls-4" d="M756.34,39.61V29.69q0-8.6-2.82-11.27t-10.3-2.68V55.9q7.28,0,10.2-2.18T756.34,39.61Z"/><path class="cls-4" d="M743.23,15.74V55.9q7.26,0,10.19-2.18t2.92-14.11V29.69q0-8.6-2.82-11.27T743.23,15.74Z"/><path d="M776.85,65.12c-.26-.39-.54-.79-.85-1.19q-2.84-3.72-11.07-6,9.09-.94,12.19-5.6t3.1-18.23q0-14.85-4.38-21.63T764.5,4.09Q758,2.55,740.58,2.44H720.51V118.61h22.72V66.23H746a21.8,21.8,0,0,1,2.24.11h0s9.65.18,9.65,8.14v44.14h22.31V88c0-9.38-.23-15.1-.69-17.19A16.8,16.8,0,0,0,776.85,65.12ZM756.34,39.61q0,12-2.92,14.11T743.23,55.9V15.74q7.47,0,10.29,2.68t2.82,11.27Z"/><rect class="cls-3" x="554.62" y="48.96" width="44.62" height="18.29" transform="translate(1153.86 116.21) rotate(180)"/><polygon class="cls-3" points="576.93 100.28 576.93 20.68 600.99 20.68 600.99 2.39 556.37 2.39 556.37 2.39 554.62 2.39 554.62 2.49 554.62 118.66 576.93 118.66 602.73 118.66 602.73 118.57 602.73 100.28 576.93 100.28"/><rect class="cls-3" x="664.76" y="48.96" width="44.62" height="18.29" transform="translate(1374.15 116.21) rotate(180)"/><polygon class="cls-3" points="687.07 100.28 687.07 20.68 711.13 20.68 711.13 2.39 666.51 2.39 666.51 2.39 664.76 2.39 664.76 2.49 664.76 118.66 687.07 118.66 712.88 118.66 712.88 118.57 712.88 100.28 687.07 100.28"/><rect class="cls-3" x="793.2" y="49.15" width="44.62" height="18.29" transform="translate(1631.03 116.59) rotate(180)"/><polygon class="cls-3" points="815.51 100.47 815.51 20.87 839.57 20.87 839.57 2.58 794.95 2.58 794.95 2.58 793.2 2.58 793.2 2.68 793.2 118.85 815.51 118.85 841.32 118.85 841.32 118.76 841.32 100.47 815.51 100.47"/><rect class="cls-3" x="997.51" y="49.15" width="44.62" height="18.29" transform="translate(2039.64 116.59) rotate(180)"/><polygon class="cls-3" points="1019.82 100.47 1019.82 20.87 1043.88 20.87 1043.88 2.58 999.26 2.58 999.26 2.58 997.51 2.58 997.51 2.68 997.51 118.85 1019.82 118.85 1045.62 118.85 1045.62 118.76 1045.62 100.47 1019.82 100.47"/><path class="cls-4" d="M504.64,15.74V55.9q7.28,0,10.2-2.18t2.92-14.11V29.69q0-8.6-2.82-11.27T504.64,15.74Z"/><path class="cls-4" d="M504.64,15.74V55.9q7.28,0,10.2-2.18t2.92-14.11V29.69q0-8.6-2.82-11.27T504.64,15.74Z"/><path class="cls-4" d="M517.76,39.61V29.69q0-8.6-2.82-11.27t-10.3-2.68V55.9q7.28,0,10.2-2.18T517.76,39.61Z"/><path class="cls-4" d="M504.64,15.74V55.9q7.28,0,10.2-2.18t2.92-14.11V29.69q0-8.6-2.82-11.27T504.64,15.74Z"/><path d="M538.27,65.12c-.26-.39-.54-.79-.85-1.19q-2.83-3.72-11.07-6,9.09-.94,12.19-5.6t3.1-18.23q0-14.85-4.38-21.63T525.92,4.09Q519.46,2.55,502,2.44H481.93V118.61h22.71V66.23h2.79a21.8,21.8,0,0,1,2.24.11h0s9.65.18,9.65,8.14v44.14h22.31V88c0-9.38-.23-15.1-.69-17.19A16.8,16.8,0,0,0,538.27,65.12ZM517.76,39.61q0,12-2.92,14.11t-10.2,2.18V15.74q7.49,0,10.3,2.68t2.82,11.27Z"/><polygon points="888.93 2.44 888.93 64.67 871.6 2.68 871.6 2.68 871.6 2.68 856.51 2.68 849.29 2.68 849.29 112.1 849.29 118.85 851.18 118.85 871.6 118.85 871.6 85.53 871.6 56.63 887.19 112.39 888.89 118.48 888.93 118.61 888.93 118.61 888.96 118.61 911.24 118.61 911.24 2.44 888.93 2.44"/><path class="cls-3" d="M364.3,7.77l44.54,48.49L453.39,7.77,457.3,12l-44.54,48.5L457.3,109l-3.91,4.26-44.55-48.5-44.68,48.65-3.91-4.27,44.68-48.64L360.38,12Zm6.07,63.78c-5.53,0-10.12-5-10.12-11s4.59-11,10.12-11,10.13,5,10.13,11C380.5,66.85,375.64,71.55,370.37,71.55Zm28.35-52.91c0-6,4.59-11,10.12-11s10.13,5,10.13,11-4.59,11-10.13,11C403,29.66,398.72,24.37,398.72,18.64ZM419,102.41c0,6-4.59,11-10.13,11s-10.12-5-10.12-11,4.59-11,10.12-11C414.65,91.39,419,96.68,419,102.41ZM447.31,49.5c5.54,0,10.13,5,10.13,11s-4.59,11-10.13,11-10.12-5-10.12-11C437.19,54.21,442.05,49.5,447.31,49.5Z"/><path d="M963.14,91a26.32,26.32,0,0,1-3,9.68c-1.54,2.78-3.43,4.16-5.68,4.16s-4.27-1.17-5.78-3.52a22.94,22.94,0,0,1-3-9.75,174,174,0,0,1-.74-18.73V48q0-9.19.23-13.79a42.1,42.1,0,0,1,1.36-8.86,17.63,17.63,0,0,1,3.12-6.7,5.86,5.86,0,0,1,4.6-2.44q3.53,0,5.82,3.78a23.82,23.82,0,0,1,3,9.42A153.14,153.14,0,0,1,963.81,47V53h23.35V42q0-16.26-2.5-24T974.18,5.16Q966.2,0,954,0a36.55,36.55,0,0,0-16,3.33,26.76,26.76,0,0,0-10.88,9.15,27.78,27.78,0,0,0-4.71,12.09,163.75,163.75,0,0,0-.79,18.84V77.35q0,17.09,2.57,25.58a22.93,22.93,0,0,0,10.48,13.31q7.9,4.82,20.1,4.81,11.73,0,19.74-5.67t10.34-13.23q2.34-7.55,2.34-25.58V72H963.81v.24A177.47,177.47,0,0,1,963.14,91Z"/></g></g></svg>
